<svg width="20" height="20" viewBox="0 0 20 20" fill="none" xmlns="http://www.w3.org/2000/svg">
<mask id="mask0_1_8" style="mask-type:alpha" maskUnits="userSpaceOnUse" x="0" y="0" width="20" height="20">
<g clip-path="url(#clip0_1_8)">
<path d="M4.29629 19.0355C4.31886 19.5746 4.76245 20 5.30191 20H14.6982C15.2376 20 15.6812 19.5746 15.7038 19.0355L16.3748 4.87012H3.62527L4.29629 19.0355ZM12.1256 8.38855C12.1256 8.16284 12.3086 7.97977 12.5344 7.97977H13.1883C13.414 7.97977 13.5971 8.16279 13.5971 8.38855V16.4816C13.5971 16.7073 13.4141 16.8903 13.1883 16.8903H12.5344C12.3087 16.8903 12.1256 16.7074 12.1256 16.4816V8.38855ZM9.26433 8.38855C9.26433 8.16284 9.44735 7.97977 9.67311 7.97977H10.327C10.5527 7.97977 10.7358 8.16279 10.7358 8.38855V16.4816C10.7358 16.7073 10.5528 16.8903 10.327 16.8903H9.67311C9.44739 16.8903 9.26433 16.7074 9.26433 16.4816V8.38855ZM6.40296 8.38855C6.40296 8.16284 6.58598 7.97977 6.81174 7.97977H7.46567C7.69138 7.97977 7.87445 8.16279 7.87445 8.38855V16.4816C7.87445 16.7073 7.69143 16.8903 7.46567 16.8903H6.81174C6.58603 16.8903 6.40296 16.7074 6.40296 16.4816V8.38855Z" fill="black"/>
<path d="M16.8216 1.0303H12.4868V0.21078C12.4868 0.094398 12.3924 0 12.276 0H7.724C7.60761 0 7.51326 0.094398 7.51326 0.21078V1.03025H3.1784C2.82954 1.03025 2.54679 1.31305 2.54679 1.66191V3.64617H17.4532V1.66195C17.4532 1.3131 17.1705 1.0303 16.8216 1.0303Z" fill="black"/>
</g>
</mask>
<g mask="url(#mask0_1_8)">
<rect x="-3" y="-7" width="33" height="35" fill="#F2F9FF"/>
</g>
<defs>
<clipPath id="clip0_1_8">
<rect width="20" height="20" fill="white"/>
</clipPath>
</defs>
</svg>
